HIERARCHY
ROOT Hips
{
  OFFSET -114.392 91.8114 -76.9829
  CHANNELS 6 Xposition Yposition Zposition Zrotation Xrotation Yrotation
  JOINT ToSpine
  {
    OFFSET -2.69724 7.43032 -0.144315
    CHANNELS 3 Zrotation Xrotation Yrotation
    JOINT Spine
    {
      OFFSET -0.0310711 10.7595 1.96963
      CHANNELS 3 Zrotation Xrotation Yrotation
      JOINT Spine1
      {
        OFFSET 13.1342 3.43533 0.764692
        CHANNELS 3 Zrotation Xrotation Yrotation
        JOINT Neck
        {
          OFFSET 29.8703 7.82586 -0.130764
          CHANNELS 3 Zrotation Xrotation Yrotation
          JOINT Head
          {
            OFFSET 9.52751 0.295786 -0.907742
            CHANNELS 3 Zrotation Xrotation Yrotation
            End Site
            {
              OFFSET 16.4037 0.713936 2.7358
            }
          }
        }
        JOINT LeftShoulder
        {
          OFFSET 27.5574 4.95586 2.47156
          CHANNELS 3 Zrotation Xrotation Yrotation
          JOINT LeftArm
          {
            OFFSET 1.20734 -0.998971 20.1238
            CHANNELS 3 Zrotation Xrotation Yrotation
            JOINT LeftForeArm
            {
              OFFSET 26.8049 -0.0536703 -0.155908
              CHANNELS 3 Zrotation Xrotation Yrotation
              JOINT LeftHand
              {
                OFFSET 26.6817 0 0.320147
                CHANNELS 3 Zrotation Xrotation Yrotation
                End Site
                {
                  OFFSET 18.6119 0 0.382219
                }
              }
            }
          }
        }
        JOINT RightShoulder
        {
          OFFSET 27.5927 4.71444 -2.65209
          CHANNELS 3 Zrotation Xrotation Yrotation
          JOINT RightArm
          {
            OFFSET 2.83739 -1.17114 -18.7564
            CHANNELS 3 Zrotation Xrotation Yrotation
            JOINT RightForeArm
            {
              OFFSET 28.839 -0.0548439 1.22491
              CHANNELS 3 Zrotation Xrotation Yrotation
              JOINT RightHand
              {
                OFFSET 26.5114 0 -0.101894
                CHANNELS 3 Zrotation Xrotation Yrotation
                End Site
                {
                  OFFSET 18.2168 0 0
                }
              }
            }
          }
        }
      }
    }
  }
  JOINT LeftUpLeg
  {
    OFFSET -4.76168 -1.9167 -10.2353
    CHANNELS 3 Zrotation Xrotation Yrotation
    JOINT LeftLeg
    {
      OFFSET 2.55951 -42.0585 -8.02213
      CHANNELS 3 Zrotation Xrotation Yrotation
      JOINT LeftFoot
      {
        OFFSET 3.16357 -42.5282 -3.95426
        CHANNELS 3 Zrotation Xrotation Yrotation
        JOINT LeftToeBase
        {
          OFFSET 0.346054 -6.02161 12.8035
          CHANNELS 3 Zrotation Xrotation Yrotation
          End Site
          {
            OFFSET 0.134235 -1.35082 5.13018
          }
        }
      }
    }
  }
  JOINT RightUpLeg
  {
    OFFSET -4.94151 -1.41743 10.6446
    CHANNELS 3 Zrotation Xrotation Yrotation
    JOINT RightLeg
    {
      OFFSET -2.56294 -42.0364 -7.94377
      CHANNELS 3 Zrotation Xrotation Yrotation
      JOINT RightFoot
      {
        OFFSET -3.0952 -42.555 -4.02241
        CHANNELS 3 Zrotation Xrotation Yrotation
        JOINT RightToeBase
        {
          OFFSET -0.0828122 -6.13587 12.8035
          CHANNELS 3 Zrotation Xrotation Yrotation
          End Site
          {
            OFFSET -0.131328 -1.35082 5.13018
          }
        }
      }
    }
  }
}
MOTION
Frames:	11
Frame Time:	0.0333333
-175.282 87.2871 -151.655 7.97845 -47.9902 -68.1668 -70.1915 0 88.8779 117.012 59.8719 -31.33 -6.77175 12.0773 4.41188 -160.607 0.367615 -178.722 -147.418 40.6964 -163.875 -0.243378 -16.553 -30.5996 -110.227 17.159 -54.8845 14.0641 0.958488 -85.132 0.42096 0.00228904 0.358659 -1.88092 6.41882 43.7935 -69.3424 -36.9347 54.3232 5.17254 -2.04542 68.6781 0.586773 -0.00638874 0.0646664 -59.2013 -2.83585 104.828 -3.65852 52.0872 -2.83893 -7.88924 6.75985 1.90792 2.39747 -6.26076 3.88989 1.03295 9.41358 68.3222 6.39681 61.2699 7.20421 -5.41857 -4.32443 0.98065 0.75126 -29.329 -28.8497 
-169.108 87.0338 -144.487 11.2423 -49.3519 -65.6923 -70.1915 0 88.8779 123.266 59.7466 -36.4227 -5.35621 13.7759 3.29643 -163.382 2.48561 -177.469 -147.818 43.0036 -163.894 -0.434715 -17.0061 -32.3601 -104.682 23.5536 -55.3765 11.5126 2.49577 -77.4508 0.42096 0.00228904 0.358659 -1.88795 6.4837 43.5906 -70.9806 -35.7254 61.6884 8.02069 -2.66274 71.7733 0.586773 -0.00638874 0.0646664 -51.5089 1.04599 105.345 -8.7945 71.8347 6.42663 -7.27616 4.27326 1.4599 0.334112 -3.87344 8.84177 -6.68284 8.79268 72.1878 6.08461 62.4517 3.03621 -5.69326 -11.4771 1.20546 2.45236 -16.5639 -22.3384 
-163.256 86.6875 -137.266 15.2803 -49.5838 -60.6613 -70.1915 0 88.8779 130.187 59.731 -39.9644 -4.66634 15.7158 1.9328 -164.704 5.90308 -176.102 -148.565 46.8185 -162.153 -0.971888 -18.1418 -35.9489 -95.9521 29.057 -57.4281 9.16929 3.40412 -69.3716 0.42096 0.00228904 0.358659 -2.02347 7.10427 42.8716 -73.1985 -35.5582 68.1968 10.9402 -2.9051 75.2389 0.586773 -0.00638874 0.0646664 -37.998 6.74624 102.05 -129.468 84.7668 130.249 -2.64423 2.63813 0.519685 2.00626 -7.01152 9.70092 -14.7013 7.39487 73.685 5.58636 62.8195 -0.234424 -6.25206 -20.6479 1.45092 2.34633 -12.539 -15.7526 
-157.665 86.3345 -130.45 15.6946 -49.5087 -59.0438 -70.1915 0 88.8779 137.927 60.0124 -43.4582 -6.61584 19.5827 -1.38071 -167.833 8.57795 -177.974 -149.16 49.052 -165.503 -1.03439 -18.069 -37.0777 -86.9404 36.1404 -58.9295 9.10481 4.42782 -63.8732 0.42096 0.00228904 0.358659 -2.20401 7.99571 41.8281 -74.6455 -36.4175 74.4436 15.2215 -2.65275 80.1381 0.586773 -0.00638874 0.0646664 -20.1335 11.6821 97.1437 -164.544 70.9934 163.675 0.201894 1.1946 -0.0297575 2.4753 -7.68124 8.96696 -21.7102 7.03855 74.8912 5.30145 61.3759 1.13942 -6.71897 -24.2962 1.50909 2.33003 -16.8197 -20.2372 
-151.785 86.302 -123.078 13.5638 -47.716 -62.2526 -70.1915 0 88.8779 137.738 63.763 -45.7003 -8.48266 22.6239 -0.216552 -169.205 10.9583 -178.249 -151.378 51.4862 -165.499 -0.646494 -16.8117 -36.2768 -81.7293 45.0073 -54.8425 5.5383 2.66957 -64.1085 0.42096 0.00228904 0.358659 -2.01948 8.40325 38.2222 -74.1461 -39.3726 81.6937 16.9489 -0.888862 87.0601 0.586773 -0.00638874 0.0646664 -1.69342 13.7913 94.2682 -166.018 67.476 164.021 -0.986671 0.722473 0.100219 3.30074 -9.45057 10.854 -27.5775 4.72766 78.5113 4.80913 58.1243 3.68878 -5.40496 -24.9562 1.64081 2.17743 -21.0466 -17.7385 
-144.851 87.1291 -114.22 13.9271 -47.023 -64.2246 -70.1915 0 88.8779 135.776 67.2724 -47.6049 -10.4428 24.8092 1.19012 -167.325 13.5732 -179.162 -152.614 53.9772 -164.949 -0.150314 -15.2103 -34.5813 -78.935 52.8568 -47.7495 4.28861 1.73878 -67.7656 0.42096 0.00228904 0.358659 -1.87325 8.31222 36.7376 -74.5301 -41.1444 85.3798 21.7244 1.96341 94.555 0.586773 -0.00638874 0.0646664 8.63157 14.6964 94.0858 -160.984 74.8202 157.95 -1.92288 -0.625614 0.0944342 3.34426 -9.35993 9.95778 -37.6675 0.593038 82.625 4.13612 50.7659 8.70993 -4.3027 -19.0017 1.51707 2.00084 -28.5356 -16.655 
-137.012 88.9678 -104.323 15.0925 -47.2619 -63.9264 -70.1915 0 88.8779 136.079 69.74 -49.2924 -11.6091 26.8586 1.50378 -165.71 15.8613 -179.811 -154.799 56.1817 -164.278 0.132211 -14.3875 -32.2559 -76.3486 59.6269 -43.351 3.3437 1.29804 -68.7476 0.42096 0.00228904 0.358659 -1.67905 7.92793 35.4078 -75.7542 -42.4927 86.5494 22.8908 4.99389 101.394 0.586773 -0.00638874 0.0646664 11.7725 14.8506 94.5018 -83.048 85.8738 76.2601 -3.2746 -1.79446 0.1419 1.61476 -6.60914 10.71 -51.0053 -1.96004 84.1734 2.38838 36.9514 13.5093 -2.10176 -2.40302 0.386932 3.38821 -37.42 -9.15997 
-128.722 90.7424 -93.9721 17.279 -47.2845 -62.3561 -70.1915 0 88.8779 134.191 72.0466 -48.528 -10.7727 28.077 1.34314 -165.202 17.5811 -179.62 -157.852 57.9643 -162.842 0.0956772 -14.6546 -31.7551 -81.4617 62.1084 -34.3409 3.95841 1.38958 -70.4989 0.42096 0.00228904 0.358659 -1.61843 7.82169 34.9455 -76.8347 -42.4039 84.7239 22.8616 7.54285 106.994 0.586773 -0.00638874 0.0646664 10.1658 13.6777 96.8143 -12.2188 72.0345 -1.36629 -2.46966 0.702406 0.297804 5.52679 -13.3623 13.2067 -62.906 -6.27507 78.8631 -0.915276 24.8313 23.1955 3.7927 15.115 -1.83424 3.43778 -32.8907 -3.23281 
-119.89 91.8883 -83.7417 19.0524 -45.4358 -58.4158 -70.1915 0 88.8779 125.46 75.1535 -36.3372 -7.65209 28.8242 -0.999389 -163.499 19.0088 179.266 -157.841 59.2247 -163.232 -0.00882394 -15.4077 -30.679 -88.2254 62.691 -27.0117 2.91911 0.923252 -72.3727 0.42096 0.00228904 0.358659 -1.50316 7.22854 35.1765 -77.1981 -41.4059 81.7257 24.9455 8.9326 108.162 0.586773 -0.00638874 0.0646664 9.14349 11.6523 98.4129 -6.61705 59.0792 -10.3026 -2.71715 3.27898 0.592569 9.75604 -19.8592 14.6885 -67.5251 -3.87778 81.2254 -2.79992 25.7111 29.6495 -0.913113 21.0259 -1.26367 2.83004 -23.2118 -30.5832 
-112.509 91.8204 -74.6298 20.8122 -45.1948 -53.1238 -70.1915 0 88.8779 120.693 75.3468 -28.2808 -5.23201 28.5358 -2.88903 -160.068 19.1093 177.054 -157.066 59.2232 -162.248 0.235504 -14.2173 -30.5321 -93.7733 60.464 -24.1264 4.96369 1.3107 -74.8707 0.42096 0.00228904 0.358659 -1.58044 7.14953 36.5616 -76.9774 -40.8811 78.2451 24.0434 6.06553 102.986 0.586773 -0.00638874 0.0646664 7.89105 11.8505 99.3626 -5.26651 55.9855 -9.15845 -4.63047 2.27813 0.765683 11.4236 -22.1084 16.945 -66.3998 2.60261 94.9679 2.52663 39.2666 -8.61723 -3.67453 12.3774 0.078541 0.693723 -10.8321 2.47382 
-104.976 91.6437 -65.0441 25.949 -46.0405 -47.0219 -70.1915 0 88.8779 119.834 73.9179 -29.3256 -3.94783 26.6161 -1.2038 -155.555 18.3614 175.217 -155.311 58.5417 -161.07 0.338497 -13.5244 -31.7678 -94.4844 57.1831 -29.0883 6.32852 1.49772 -76.3067 0.42096 0.00228904 0.358659 -1.84758 7.47363 39.0529 -77.0464 -40.4467 73.869 21.6305 1.09136 92.6579 0.586773 -0.00638874 0.0646664 1.09764 11.0156 101.838 -6.36169 59.7926 -8.11492 -4.13146 -1.24275 0.340317 11.2249 -21.8312 17.0539 -63.664 7.28674 93.2569 4.08598 60.5959 -1.80146 0.274647 14.2918 -1.00384 2.40786 -11.6295 -16.19 
